<mxfile host="app.diagrams.net" modified="2020-09-23T09:02:07.996Z" agent="5.0 (Macintosh; Intel Mac OS X 10_15_6) AppleWebKit/605.1.15 (KHTML, like Gecko) Version/13.1.2 Safari/605.1.15" etag="GVk1C20lv4XGfE-wbtbb" version="13.7.4" type="github">
  <diagram id="D3cwJ94xAtWDLVd50uDA" name="Page-1">
    <mxGraphModel dx="1186" dy="939" grid="1" gridSize="10" guides="1" tooltips="1" connect="1" arrows="1" fold="1" page="1" pageScale="1" pageWidth="827" pageHeight="1169" math="0" shadow="0">
      <root>
        <mxCell id="0" />
        <mxCell id="1" parent="0" />
        <mxCell id="X41fs1b5MaBl-yQGmuW_-1" value="&lt;font style=&quot;font-size: 22px&quot;&gt;Mikrokontroler&lt;br&gt;STM32F407&lt;br&gt;Discovery&lt;/font&gt;" style="rounded=0;whiteSpace=wrap;html=1;" vertex="1" parent="1">
          <mxGeometry x="40" y="40" width="200" height="280" as="geometry" />
        </mxCell>
        <mxCell id="X41fs1b5MaBl-yQGmuW_-2" value="Enkoder&lt;br&gt;DFRobot 400P/R" style="rounded=0;whiteSpace=wrap;html=1;" vertex="1" parent="1">
          <mxGeometry x="320" y="40" width="120" height="60" as="geometry" />
        </mxCell>
        <mxCell id="X41fs1b5MaBl-yQGmuW_-3" value="Sterownik silnika&lt;br&gt;L298N" style="rounded=0;whiteSpace=wrap;html=1;" vertex="1" parent="1">
          <mxGeometry x="480" y="40" width="120" height="60" as="geometry" />
        </mxCell>
        <mxCell id="X41fs1b5MaBl-yQGmuW_-4" value="Silnik&lt;br&gt;Pololu 37Dx65L" style="rounded=0;whiteSpace=wrap;html=1;" vertex="1" parent="1">
          <mxGeometry x="640" y="40" width="120" height="60" as="geometry" />
        </mxCell>
        <mxCell id="X41fs1b5MaBl-yQGmuW_-5" value="Enkoder silnika&lt;br&gt;64 CPR" style="rounded=0;whiteSpace=wrap;html=1;" vertex="1" parent="1">
          <mxGeometry x="800" y="40" width="120" height="60" as="geometry" />
        </mxCell>
        <mxCell id="X41fs1b5MaBl-yQGmuW_-7" value="Zasilacz&lt;br&gt;ATX 400W" style="rounded=0;whiteSpace=wrap;html=1;" vertex="1" parent="1">
          <mxGeometry x="480" y="200" width="200" height="120" as="geometry" />
        </mxCell>
        <mxCell id="X41fs1b5MaBl-yQGmuW_-13" value="" style="endArrow=none;html=1;strokeWidth=5;fillColor=#d5e8d4;strokeColor=#82b366;" edge="1" parent="1">
          <mxGeometry width="50" height="50" relative="1" as="geometry">
            <mxPoint x="330" y="120" as="sourcePoint" />
            <mxPoint x="330" y="100" as="targetPoint" />
          </mxGeometry>
        </mxCell>
        <mxCell id="X41fs1b5MaBl-yQGmuW_-14" value="" style="endArrow=none;html=1;exitX=1;exitY=0.286;exitDx=0;exitDy=0;exitPerimeter=0;fillColor=#d5e8d4;strokeColor=#82b366;strokeWidth=5;" edge="1" parent="1" source="X41fs1b5MaBl-yQGmuW_-1">
          <mxGeometry width="50" height="50" relative="1" as="geometry">
            <mxPoint x="280" y="170" as="sourcePoint" />
            <mxPoint x="330" y="120" as="targetPoint" />
          </mxGeometry>
        </mxCell>
        <mxCell id="X41fs1b5MaBl-yQGmuW_-15" value="" style="endArrow=none;html=1;strokeWidth=5;fillColor=#f8cecc;strokeColor=#b85450;" edge="1" parent="1">
          <mxGeometry width="50" height="50" relative="1" as="geometry">
            <mxPoint x="340" y="140" as="sourcePoint" />
            <mxPoint x="340" y="100" as="targetPoint" />
          </mxGeometry>
        </mxCell>
        <mxCell id="X41fs1b5MaBl-yQGmuW_-16" value="" style="endArrow=none;html=1;strokeWidth=5;fillColor=#f8cecc;strokeColor=#b85450;" edge="1" parent="1">
          <mxGeometry width="50" height="50" relative="1" as="geometry">
            <mxPoint x="239" y="140" as="sourcePoint" />
            <mxPoint x="340" y="140" as="targetPoint" />
          </mxGeometry>
        </mxCell>
      </root>
    </mxGraphModel>
  </diagram>
</mxfile>
